# MagicaVoxel @ ephtracy

# material
mtllib truck-head-blue.mtl
usemtl palette

# normals
vn -1 0 0
vn 1 0 0
vn 0 0 1
vn 0 0 -1
vn 0 -1 0
vn 0 1 0

# texcoords
vt 0.0175781 0.5
vt 0.306641 0.5
vt 0.634766 0.5
vt 0.666016 0.5
vt 0.861328 0.5
vt 0.876953 0.5
vt 0.962891 0.5
vt 0.966797 0.5
vt 0.974609 0.5
vt 0.982422 0.5
vt 0.994141 0.5

# verts and faces
v -7 4 5.5
v -7 4 -5.5
v -7 5 7.5
v -7 5 5.5
v -7 5 -5.5
v -7 5 -7.5
v -7 6 6.5
v -7 6 3.5
v -7 6 -3.5
v -7 6 -6.5
v -7 8 6.5
v -7 8 3.5
v -7 8 -3.5
v -7 8 -6.5
v -7 10 7.5
v -7 10 -7.5
v -7 15 7.5
v -7 15 -7.5
v -7 18 7.5
v -7 18 -7.5
f -17/3/1 -19/3/1 -20/3/1
f -16/3/1 -19/3/1 -17/3/1
f -14/3/1 -17/3/1 -18/3/1
f -14/3/1 -15/3/1 -16/3/1
f -14/3/1 -16/3/1 -17/3/1
f -13/3/1 -15/3/1 -14/3/1
f -12/3/1 -15/3/1 -13/3/1
f -11/3/1 -15/3/1 -12/3/1
f -10/3/1 -14/3/1 -18/3/1
f -10/1/1 -13/1/1 -14/1/1
f -9/3/1 -12/3/1 -13/3/1
f -9/1/1 -13/1/1 -10/1/1
f -8/1/1 -11/1/1 -12/1/1
f -8/3/1 -12/3/1 -9/3/1
f -7/3/1 -15/3/1 -11/3/1
f -7/1/1 -11/1/1 -8/1/1
f -6/3/1 -8/3/1 -9/3/1
f -6/3/1 -9/3/1 -10/3/1
f -6/3/1 -7/3/1 -8/3/1
f -6/3/1 -10/3/1 -18/3/1
f -5/3/1 -15/3/1 -7/3/1
f -5/3/1 -7/3/1 -6/3/1
f -4/11/1 -5/11/1 -6/11/1
f -3/11/1 -5/11/1 -4/11/1
f -2/3/1 -3/3/1 -4/3/1
f -1/3/1 -3/3/1 -2/3/1
v -6 3 6.5
v -6 3 -6.5
v -6 4 5.5
v -6 4 -5.5
v -6 5 6.5
v -6 5 5.5
v -6 5 -5.5
v -6 5 -6.5
f -6/9/1 -7/9/1 -8/9/1
f -5/9/1 -7/9/1 -6/9/1
f -4/9/1 -6/9/1 -8/9/1
f -3/9/1 -6/9/1 -4/9/1
f -2/9/1 -7/9/1 -5/9/1
f -1/9/1 -7/9/1 -2/9/1
v -3 1 8.5
v -3 1 7.5
v -3 1 -7.5
v -3 1 -8.5
v -3 2 8.5
v -3 2 7.5
v -3 2 -7.5
v -3 2 -8.5
v -3 5 8.5
v -3 5 7.5
v -3 5 -7.5
v -3 5 -8.5
f -8/10/1 -11/10/1 -12/10/1
f -7/10/1 -11/10/1 -8/10/1
f -6/10/1 -9/10/1 -10/10/1
f -5/10/1 -9/10/1 -6/10/1
f -4/6/1 -7/6/1 -8/6/1
f -3/6/1 -7/6/1 -4/6/1
f -2/6/1 -5/6/1 -6/6/1
f -1/6/1 -5/6/1 -2/6/1
v -2 0 8.5
v -2 0 7.5
v -2 0 -7.5
v -2 0 -8.5
v -2 1 8.5
v -2 1 7.5
v -2 1 -7.5
v -2 1 -8.5
v -2 5 8.5
v -2 5 7.5
v -2 5 -7.5
v -2 5 -8.5
v -2 6 8.5
v -2 6 7.5
v -2 6 -7.5
v -2 6 -8.5
f -12/6/1 -15/6/1 -16/6/1
f -11/6/1 -15/6/1 -12/6/1
f -10/6/1 -13/6/1 -14/6/1
f -9/6/1 -13/6/1 -10/6/1
f -4/6/1 -7/6/1 -8/6/1
f -3/6/1 -7/6/1 -4/6/1
f -2/6/1 -5/6/1 -6/6/1
f -1/6/1 -5/6/1 -2/6/1
v 0 18 4.5
v 0 18 -4.5
v 0 20 4.5
v 0 20 -4.5
f -2/9/1 -3/9/1 -4/9/1
f -1/9/1 -3/9/1 -2/9/1
v 1 7 8.5
v 1 7 7.5
v 1 7 -7.5
v 1 7 -8.5
v 1 11 8.5
v 1 11 7.5
v 1 11 -7.5
v 1 11 -8.5
f -4/4/1 -7/4/1 -8/4/1
f -3/4/1 -7/4/1 -4/4/1
f -2/4/1 -5/4/1 -6/4/1
f -1/4/1 -5/4/1 -2/4/1
v 3 20 4.5
v 3 20 -4.5
v 3 22 4.5
v 3 22 -4.5
f -2/9/1 -3/9/1 -4/9/1
f -1/9/1 -3/9/1 -2/9/1
v 2 0 8.5
v 2 0 7.5
v 2 0 -7.5
v 2 0 -8.5
v 2 1 8.5
v 2 1 7.5
v 2 1 -7.5
v 2 1 -8.5
v 2 5 8.5
v 2 5 7.5
v 2 5 -7.5
v 2 5 -8.5
v 2 6 8.5
v 2 6 7.5
v 2 6 -7.5
v 2 6 -8.5
f -16/6/2 -15/6/2 -12/6/2
f -12/6/2 -15/6/2 -11/6/2
f -14/6/2 -13/6/2 -10/6/2
f -10/6/2 -13/6/2 -9/6/2
f -8/6/2 -7/6/2 -4/6/2
f -4/6/2 -7/6/2 -3/6/2
f -6/6/2 -5/6/2 -2/6/2
f -2/6/2 -5/6/2 -1/6/2
v 3 1 8.5
v 3 1 7.5
v 3 1 -7.5
v 3 1 -8.5
v 3 3 6.5
v 3 3 -6.5
v 3 4 5.5
v 3 4 -5.5
v 3 5 8.5
v 3 5 7.5
v 3 5 6.5
v 3 5 5.5
v 3 5 -5.5
v 3 5 -6.5
v 3 5 -7.5
v 3 5 -8.5
f -12/9/2 -11/9/2 -10/9/2
f -10/9/2 -11/9/2 -9/9/2
f -16/6/2 -15/6/2 -8/6/2
f -8/6/2 -15/6/2 -7/6/2
f -12/9/2 -10/9/2 -6/9/2
f -10/8/2 -9/8/2 -5/8/2
f -6/9/2 -10/9/2 -5/9/2
f -9/9/2 -11/9/2 -4/9/2
f -5/8/2 -9/8/2 -4/8/2
f -4/9/2 -11/9/2 -3/9/2
f -14/6/2 -13/6/2 -2/6/2
f -2/6/2 -13/6/2 -1/6/2
v 4 7 8.5
v 4 7 7.5
v 4 7 -7.5
v 4 7 -8.5
v 4 11 8.5
v 4 11 7.5
v 4 11 -7.5
v 4 11 -8.5
f -8/4/2 -7/4/2 -4/4/2
f -4/4/2 -7/4/2 -3/4/2
f -6/4/2 -5/4/2 -2/4/2
f -2/4/2 -5/4/2 -1/4/2
v 7 5 7.5
v 7 5 6.5
v 7 5 -6.5
v 7 5 -7.5
v 7 17 4.5
v 7 17 -4.5
v 7 17 -6.5
v 7 18 7.5
v 7 18 6.5
v 7 18 4.5
v 7 18 -4.5
v 7 18 -7.5
v 7 22 4.5
v 7 22 -4.5
f -13/4/2 -12/4/2 -10/4/2
f -10/4/2 -12/4/2 -9/4/2
f -12/3/2 -11/3/2 -8/3/2
f -9/4/2 -12/4/2 -8/4/2
f -14/3/2 -13/3/2 -7/3/2
f -13/4/2 -10/4/2 -6/4/2
f -7/3/2 -13/3/2 -6/3/2
f -10/9/2 -9/9/2 -5/9/2
f -6/4/2 -10/4/2 -5/4/2
f -9/3/2 -8/3/2 -4/3/2
f -5/9/2 -9/9/2 -4/9/2
f -8/3/2 -11/3/2 -3/3/2
f -4/3/2 -8/3/2 -3/3/2
f -5/9/2 -4/9/2 -2/9/2
f -2/9/2 -4/9/2 -1/9/2
v -3 1 8.5
v -3 2 8.5
v -3 5 8.5
v -2 0 8.5
v -2 1 8.5
v -2 2 8.5
v -2 5 8.5
v -2 6 8.5
v -1 2 8.5
v -1 4 8.5
v 1 2 8.5
v 1 4 8.5
v 1 7 8.5
v 1 11 8.5
v 2 0 8.5
v 2 1 8.5
v 2 5 8.5
v 2 6 8.5
v 3 1 8.5
v 3 5 8.5
v 4 7 8.5
v 4 11 8.5
f -18/10/3 -21/10/3 -22/10/3
f -17/6/3 -20/6/3 -21/6/3
f -17/10/3 -21/10/3 -18/10/3
f -16/6/3 -20/6/3 -17/6/3
f -14/6/3 -18/6/3 -19/6/3
f -14/6/3 -15/6/3 -16/6/3
f -14/6/3 -16/6/3 -17/6/3
f -14/6/3 -17/6/3 -18/6/3
f -13/6/3 -15/6/3 -14/6/3
f -12/6/3 -14/6/3 -19/6/3
f -12/8/3 -13/8/3 -14/8/3
f -11/6/3 -15/6/3 -13/6/3
f -11/8/3 -13/8/3 -12/8/3
f -8/6/3 -12/6/3 -19/6/3
f -8/6/3 -11/6/3 -12/6/3
f -7/6/3 -11/6/3 -8/6/3
f -6/6/3 -15/6/3 -11/6/3
f -6/6/3 -11/6/3 -7/6/3
f -5/6/3 -15/6/3 -6/6/3
f -4/6/3 -6/6/3 -7/6/3
f -3/6/3 -6/6/3 -4/6/3
f -2/4/3 -9/4/3 -10/4/3
f -1/4/3 -9/4/3 -2/4/3
v -7 5 7.5
v -7 10 7.5
v -7 15 7.5
v -7 18 7.5
v -6 5 7.5
v -6 10 7.5
v -3 5 7.5
v -3 10 7.5
v -2 5 7.5
v -2 6 7.5
v -1 10 7.5
v -1 15 7.5
v 1 7 7.5
v 1 11 7.5
v 2 5 7.5
v 2 6 7.5
v 3 5 7.5
v 4 7 7.5
v 4 11 7.5
v 7 5 7.5
v 7 18 7.5
f -17/3/3 -20/3/3 -21/3/3
f -16/11/3 -19/11/3 -20/11/3
f -16/3/3 -20/3/3 -17/3/3
f -15/4/3 -16/4/3 -17/4/3
f -14/11/3 -19/11/3 -16/11/3
f -14/4/3 -16/4/3 -15/4/3
f -13/3/3 -14/3/3 -15/3/3
f -12/3/3 -14/3/3 -13/3/3
f -11/11/3 -19/11/3 -14/11/3
f -11/3/3 -14/3/3 -12/3/3
f -10/3/3 -18/3/3 -19/3/3
f -10/11/3 -19/11/3 -11/11/3
f -9/3/3 -11/3/3 -12/3/3
f -9/3/3 -10/3/3 -11/3/3
f -8/3/3 -10/3/3 -9/3/3
f -6/3/3 -9/3/3 -12/3/3
f -5/3/3 -6/3/3 -7/3/3
f -4/3/3 -9/3/3 -6/3/3
f -4/3/3 -6/3/3 -5/3/3
f -3/3/3 -10/3/3 -8/3/3
f -2/3/3 -4/3/3 -5/3/3
f -2/3/3 -3/3/3 -4/3/3
f -1/3/3 -18/3/3 -10/3/3
f -1/3/3 -3/3/3 -2/3/3
f -1/3/3 -10/3/3 -3/3/3
v -6 3 6.5
v -6 5 6.5
v -3 5 6.5
v -2 5 6.5
v 2 5 6.5
v 3 3 6.5
v 3 5 6.5
f -5/9/3 -6/9/3 -7/9/3
f -4/9/3 -5/9/3 -7/9/3
f -3/9/3 -4/9/3 -7/9/3
f -2/9/3 -3/9/3 -7/9/3
f -1/9/3 -3/9/3 -2/9/3
v -7 4 5.5
v -7 5 5.5
v -6 4 5.5
v -6 5 5.5
f -2/3/3 -3/3/3 -4/3/3
f -1/3/3 -3/3/3 -2/3/3
v 0 18 4.5
v 0 20 4.5
v 3 20 4.5
v 3 22 4.5
v 6 18 4.5
v 7 18 4.5
v 7 22 4.5
f -5/9/3 -6/9/3 -7/9/3
f -3/9/3 -5/9/3 -7/9/3
f -3/9/3 -4/9/3 -5/9/3
f -2/9/3 -4/9/3 -3/9/3
f -1/9/3 -4/9/3 -2/9/3
v -3 1 -7.5
v -3 2 -7.5
v -3 5 -7.5
v -2 0 -7.5
v -2 1 -7.5
v -2 2 -7.5
v -2 5 -7.5
v -1 2 -7.5
v -1 4 -7.5
v 1 2 -7.5
v 1 4 -7.5
v 2 0 -7.5
v 2 1 -7.5
v 2 5 -7.5
v 3 1 -7.5
v 3 5 -7.5
f -12/10/3 -15/10/3 -16/10/3
f -11/6/3 -14/6/3 -15/6/3
f -11/10/3 -15/10/3 -12/10/3
f -10/6/3 -14/6/3 -11/6/3
f -9/6/3 -12/6/3 -13/6/3
f -9/6/3 -11/6/3 -12/6/3
f -9/6/3 -10/6/3 -11/6/3
f -8/6/3 -10/6/3 -9/6/3
f -7/6/3 -9/6/3 -13/6/3
f -7/8/3 -8/8/3 -9/8/3
f -6/6/3 -10/6/3 -8/6/3
f -6/8/3 -8/8/3 -7/8/3
f -5/6/3 -7/6/3 -13/6/3
f -5/6/3 -6/6/3 -7/6/3
f -4/6/3 -6/6/3 -5/6/3
f -3/6/3 -10/6/3 -6/6/3
f -3/6/3 -6/6/3 -4/6/3
f -2/6/3 -3/6/3 -4/6/3
f -1/6/3 -3/6/3 -2/6/3
v -3 1 7.5
v -3 2 7.5
v -3 5 7.5
v -2 0 7.5
v -2 1 7.5
v -2 2 7.5
v -2 5 7.5
v -1 2 7.5
v -1 4 7.5
v 1 2 7.5
v 1 4 7.5
v 2 0 7.5
v 2 1 7.5
v 2 5 7.5
v 3 1 7.5
v 3 5 7.5
f -16/10/4 -15/10/4 -12/10/4
f -15/6/4 -14/6/4 -11/6/4
f -12/10/4 -15/10/4 -11/10/4
f -11/6/4 -14/6/4 -10/6/4
f -13/6/4 -12/6/4 -9/6/4
f -12/6/4 -11/6/4 -9/6/4
f -11/6/4 -10/6/4 -9/6/4
f -9/6/4 -10/6/4 -8/6/4
f -13/6/4 -9/6/4 -7/6/4
f -9/8/4 -8/8/4 -7/8/4
f -8/6/4 -10/6/4 -6/6/4
f -7/8/4 -8/8/4 -6/8/4
f -13/6/4 -7/6/4 -5/6/4
f -7/6/4 -6/6/4 -5/6/4
f -5/6/4 -6/6/4 -4/6/4
f -6/6/4 -10/6/4 -3/6/4
f -4/6/4 -6/6/4 -3/6/4
f -4/6/4 -3/6/4 -2/6/4
f -2/6/4 -3/6/4 -1/6/4
v 0 18 -4.5
v 0 20 -4.5
v 3 20 -4.5
v 3 22 -4.5
v 7 18 -4.5
v 7 22 -4.5
f -6/9/4 -5/9/4 -4/9/4
f -6/9/4 -4/9/4 -2/9/4
f -4/9/4 -3/9/4 -2/9/4
f -2/9/4 -3/9/4 -1/9/4
v -7 4 -5.5
v -7 5 -5.5
v -6 4 -5.5
v -6 5 -5.5
f -4/3/4 -3/3/4 -2/3/4
f -2/3/4 -3/3/4 -1/3/4
v -6 3 -6.5
v -6 5 -6.5
v -3 5 -6.5
v -2 5 -6.5
v 2 5 -6.5
v 3 3 -6.5
v 3 5 -6.5
f -7/9/4 -6/9/4 -5/9/4
f -7/9/4 -5/9/4 -4/9/4
f -7/9/4 -4/9/4 -3/9/4
f -7/9/4 -3/9/4 -2/9/4
f -2/9/4 -3/9/4 -1/9/4
v -7 5 -7.5
v -7 10 -7.5
v -7 15 -7.5
v -7 18 -7.5
v -6 5 -7.5
v -6 10 -7.5
v -3 5 -7.5
v -3 10 -7.5
v -2 5 -7.5
v -2 6 -7.5
v -1 10 -7.5
v -1 15 -7.5
v 1 7 -7.5
v 1 11 -7.5
v 2 5 -7.5
v 2 6 -7.5
v 3 5 -7.5
v 4 7 -7.5
v 4 11 -7.5
v 7 5 -7.5
v 7 18 -7.5
f -21/3/4 -20/3/4 -17/3/4
f -20/11/4 -19/11/4 -16/11/4
f -17/3/4 -20/3/4 -16/3/4
f -17/4/4 -16/4/4 -15/4/4
f -16/11/4 -19/11/4 -14/11/4
f -15/4/4 -16/4/4 -14/4/4
f -15/3/4 -14/3/4 -13/3/4
f -13/3/4 -14/3/4 -12/3/4
f -14/11/4 -19/11/4 -11/11/4
f -12/3/4 -14/3/4 -11/3/4
f -19/3/4 -18/3/4 -10/3/4
f -11/11/4 -19/11/4 -10/11/4
f -12/3/4 -11/3/4 -9/3/4
f -11/3/4 -10/3/4 -9/3/4
f -9/3/4 -10/3/4 -8/3/4
f -12/3/4 -9/3/4 -6/3/4
f -7/3/4 -6/3/4 -5/3/4
f -6/3/4 -9/3/4 -4/3/4
f -5/3/4 -6/3/4 -4/3/4
f -8/3/4 -10/3/4 -3/3/4
f -5/3/4 -4/3/4 -2/3/4
f -4/3/4 -3/3/4 -2/3/4
f -10/3/4 -18/3/4 -1/3/4
f -2/3/4 -3/3/4 -1/3/4
f -3/3/4 -10/3/4 -1/3/4
v -3 1 -8.5
v -3 2 -8.5
v -3 5 -8.5
v -2 0 -8.5
v -2 1 -8.5
v -2 2 -8.5
v -2 5 -8.5
v -2 6 -8.5
v -1 2 -8.5
v -1 4 -8.5
v 1 2 -8.5
v 1 4 -8.5
v 1 7 -8.5
v 1 11 -8.5
v 2 0 -8.5
v 2 1 -8.5
v 2 5 -8.5
v 2 6 -8.5
v 3 1 -8.5
v 3 5 -8.5
v 4 7 -8.5
v 4 11 -8.5
f -22/10/4 -21/10/4 -18/10/4
f -21/6/4 -20/6/4 -17/6/4
f -18/10/4 -21/10/4 -17/10/4
f -17/6/4 -20/6/4 -16/6/4
f -19/6/4 -18/6/4 -14/6/4
f -16/6/4 -15/6/4 -14/6/4
f -17/6/4 -16/6/4 -14/6/4
f -18/6/4 -17/6/4 -14/6/4
f -14/6/4 -15/6/4 -13/6/4
f -19/6/4 -14/6/4 -12/6/4
f -14/8/4 -13/8/4 -12/8/4
f -13/6/4 -15/6/4 -11/6/4
f -12/8/4 -13/8/4 -11/8/4
f -19/6/4 -12/6/4 -8/6/4
f -12/6/4 -11/6/4 -8/6/4
f -8/6/4 -11/6/4 -7/6/4
f -11/6/4 -15/6/4 -6/6/4
f -7/6/4 -11/6/4 -6/6/4
f -6/6/4 -15/6/4 -5/6/4
f -7/6/4 -6/6/4 -4/6/4
f -4/6/4 -6/6/4 -3/6/4
f -10/4/4 -9/4/4 -2/4/4
f -2/4/4 -9/4/4 -1/4/4
v -2 0 8.5
v 2 0 8.5
v -2 0 7.5
v 2 0 7.5
v -2 0 -7.5
v 2 0 -7.5
v -2 0 -8.5
v 2 0 -8.5
f -6/6/5 -7/6/5 -8/6/5
f -5/6/5 -7/6/5 -6/6/5
f -2/6/5 -3/6/5 -4/6/5
f -1/6/5 -3/6/5 -2/6/5
v -3 1 8.5
v -2 1 8.5
v 2 1 8.5
v 3 1 8.5
v -3 1 7.5
v -2 1 7.5
v 2 1 7.5
v 3 1 7.5
v -3 1 -7.5
v -2 1 -7.5
v 2 1 -7.5
v 3 1 -7.5
v -3 1 -8.5
v -2 1 -8.5
v 2 1 -8.5
v 3 1 -8.5
f -12/10/5 -15/10/5 -16/10/5
f -11/10/5 -15/10/5 -12/10/5
f -10/6/5 -13/6/5 -14/6/5
f -9/6/5 -13/6/5 -10/6/5
f -4/10/5 -7/10/5 -8/10/5
f -3/10/5 -7/10/5 -4/10/5
f -2/6/5 -5/6/5 -6/6/5
f -1/6/5 -5/6/5 -2/6/5
v -6 3 6.5
v 3 3 6.5
v -6 3 -6.5
v 3 3 -6.5
f -2/9/5 -3/9/5 -4/9/5
f -1/9/5 -3/9/5 -2/9/5
v -7 4 5.5
v -6 4 5.5
v -7 4 -5.5
v -6 4 -5.5
f -2/3/5 -3/3/5 -4/3/5
f -1/3/5 -3/3/5 -2/3/5
v -7 5 7.5
v -6 5 7.5
v -3 5 7.5
v -2 5 7.5
v 2 5 7.5
v 3 5 7.5
v 7 5 7.5
v -6 5 6.5
v -3 5 6.5
v -2 5 6.5
v 2 5 6.5
v 3 5 6.5
v 5 5 6.5
v 6 5 6.5
v 7 5 6.5
v -7 5 5.5
v -6 5 5.5
v 3 5 5.5
v -7 5 -5.5
v -6 5 -5.5
v 3 5 -5.5
v -6 5 -6.5
v -3 5 -6.5
v -2 5 -6.5
v 2 5 -6.5
v 3 5 -6.5
v 5 5 -6.5
v 6 5 -6.5
v 7 5 -6.5
v -7 5 -7.5
v -6 5 -7.5
v -3 5 -7.5
v -2 5 -7.5
v 2 5 -7.5
v 3 5 -7.5
v 7 5 -7.5
f -29/3/5 -35/3/5 -36/3/5
f -29/4/5 -34/4/5 -35/4/5
f -28/3/5 -33/3/5 -34/3/5
f -28/4/5 -34/4/5 -29/4/5
f -27/7/5 -32/7/5 -33/7/5
f -27/3/5 -33/3/5 -28/3/5
f -26/3/5 -30/3/5 -31/3/5
f -26/7/5 -32/7/5 -27/7/5
f -26/3/5 -31/3/5 -32/3/5
f -25/3/5 -30/3/5 -26/3/5
f -24/3/5 -30/3/5 -25/3/5
f -23/3/5 -30/3/5 -24/3/5
f -22/3/5 -30/3/5 -23/3/5
f -21/3/5 -29/3/5 -36/3/5
f -20/3/5 -29/3/5 -21/3/5
f -19/3/5 -24/3/5 -25/3/5
f -16/3/5 -24/3/5 -19/3/5
f -15/3/5 -17/3/5 -18/3/5
f -11/3/5 -24/3/5 -16/3/5
f -10/10/5 -23/10/5 -24/10/5
f -10/3/5 -24/3/5 -11/3/5
f -9/4/5 -22/4/5 -23/4/5
f -9/10/5 -23/10/5 -10/10/5
f -8/4/5 -22/4/5 -9/4/5
f -7/3/5 -15/3/5 -18/3/5
f -6/4/5 -14/4/5 -15/4/5
f -6/3/5 -15/3/5 -7/3/5
f -5/3/5 -13/3/5 -14/3/5
f -5/4/5 -14/4/5 -6/4/5
f -4/7/5 -12/7/5 -13/7/5
f -4/3/5 -13/3/5 -5/3/5
f -3/3/5 -10/3/5 -11/3/5
f -3/7/5 -12/7/5 -4/7/5
f -3/3/5 -11/3/5 -12/3/5
f -3/3/5 -8/3/5 -9/3/5
f -3/3/5 -9/3/5 -10/3/5
f -2/3/5 -8/3/5 -3/3/5
f -1/3/5 -8/3/5 -2/3/5
v 1 7 8.5
v 4 7 8.5
v 1 7 7.5
v 4 7 7.5
v 1 7 -7.5
v 4 7 -7.5
v 1 7 -8.5
v 4 7 -8.5
f -6/4/5 -7/4/5 -8/4/5
f -5/4/5 -7/4/5 -6/4/5
f -2/4/5 -3/4/5 -4/4/5
f -1/4/5 -3/4/5 -2/4/5
v -3 5 8.5
v -2 5 8.5
v 2 5 8.5
v 3 5 8.5
v -3 5 7.5
v -2 5 7.5
v 2 5 7.5
v 3 5 7.5
v -3 5 -7.5
v -2 5 -7.5
v 2 5 -7.5
v 3 5 -7.5
v -3 5 -8.5
v -2 5 -8.5
v 2 5 -8.5
v 3 5 -8.5
f -16/6/6 -15/6/6 -12/6/6
f -12/6/6 -15/6/6 -11/6/6
f -14/6/6 -13/6/6 -10/6/6
f -10/6/6 -13/6/6 -9/6/6
f -8/6/6 -7/6/6 -4/6/6
f -4/6/6 -7/6/6 -3/6/6
f -6/6/6 -5/6/6 -2/6/6
f -2/6/6 -5/6/6 -1/6/6
v -2 6 8.5
v 2 6 8.5
v -2 6 7.5
v 2 6 7.5
v -2 6 -7.5
v 2 6 -7.5
v -2 6 -8.5
v 2 6 -8.5
f -8/6/6 -7/6/6 -6/6/6
f -6/6/6 -7/6/6 -5/6/6
f -4/6/6 -3/6/6 -2/6/6
f -2/6/6 -3/6/6 -1/6/6
v 1 11 8.5
v 4 11 8.5
v 1 11 7.5
v 4 11 7.5
v 1 11 -7.5
v 4 11 -7.5
v 1 11 -8.5
v 4 11 -8.5
f -8/4/6 -7/4/6 -6/4/6
f -6/4/6 -7/4/6 -5/4/6
f -4/4/6 -3/4/6 -2/4/6
f -2/4/6 -3/4/6 -1/4/6
v -7 18 7.5
v 7 18 7.5
v 6 18 6.5
v 7 18 6.5
v 0 18 4.5
v 6 18 4.5
v 7 18 4.5
v 0 18 -4.5
v 7 18 -4.5
v -7 18 -7.5
v 7 18 -7.5
f -11/3/6 -10/3/6 -9/3/6
f -9/3/6 -10/3/6 -8/3/6
f -11/3/6 -9/3/6 -7/3/6
f -9/4/6 -8/4/6 -6/4/6
f -7/3/6 -9/3/6 -6/3/6
f -6/4/6 -8/4/6 -5/4/6
f -11/3/6 -7/3/6 -4/3/6
f -11/3/6 -4/3/6 -2/3/6
f -4/3/6 -3/3/6 -2/3/6
f -2/3/6 -3/3/6 -1/3/6
v 0 20 4.5
v 3 20 4.5
v 0 20 -4.5
v 3 20 -4.5
f -4/9/6 -3/9/6 -2/9/6
f -2/9/6 -3/9/6 -1/9/6
v 3 22 4.5
v 7 22 4.5
v 3 22 -4.5
v 7 22 -4.5
f -4/9/6 -3/9/6 -2/9/6
f -2/9/6 -3/9/6 -1/9/6
