# MagicaVoxel @ ephtracy

# material
mtllib car-green.mtl
usemtl palette

# normals
vn -1 0 0
vn 1 0 0
vn 0 0 1
vn 0 0 -1
vn 0 -1 0
vn 0 1 0

# texcoords
vt 0.474609 0.5
vt 0.587891 0.5
vt 0.595703 0.5
vt 0.916016 0.5
vt 0.931641 0.5
vt 0.958984 0.5
vt 0.962891 0.5
vt 0.994141 0.5

# verts and faces
v -18 5 5.5
v -18 5 2.5
v -18 5 -2.5
v -18 5 -5.5
v -18 7 5.5
v -18 7 2.5
v -18 7 -2.5
v -18 7 -5.5
f -4/5/1 -7/5/1 -8/5/1
f -3/5/1 -7/5/1 -4/5/1
f -2/5/1 -5/5/1 -6/5/1
f -1/5/1 -5/5/1 -2/5/1
v -17 2 6.5
v -17 2 1.5
v -17 2 -1.5
v -17 2 -6.5
v -17 5 5.5
v -17 5 2.5
v -17 5 -2.5
v -17 5 -5.5
v -17 7 5.5
v -17 7 2.5
v -17 7 -2.5
v -17 7 -5.5
v -17 8 3.5
v -17 8 1.5
v -17 8 -1.5
v -17 8 -3.5
v -17 9 6.5
v -17 9 3.5
v -17 9 -3.5
v -17 9 -6.5
f -16/2/1 -19/2/1 -20/2/1
f -15/2/1 -19/2/1 -16/2/1
f -14/2/1 -17/2/1 -18/2/1
f -13/2/1 -17/2/1 -14/2/1
f -12/2/1 -16/2/1 -20/2/1
f -11/2/1 -19/2/1 -15/2/1
f -10/2/1 -14/2/1 -18/2/1
f -9/2/1 -17/2/1 -13/2/1
f -8/2/1 -11/2/1 -12/2/1
f -7/3/1 -18/3/1 -19/3/1
f -7/2/1 -11/2/1 -8/2/1
f -7/2/1 -19/2/1 -11/2/1
f -6/2/1 -10/2/1 -18/2/1
f -6/3/1 -18/3/1 -7/3/1
f -6/2/1 -9/2/1 -10/2/1
f -5/2/1 -9/2/1 -6/2/1
f -4/2/1 -12/2/1 -20/2/1
f -4/2/1 -8/2/1 -12/2/1
f -3/2/1 -8/2/1 -4/2/1
f -2/2/1 -9/2/1 -5/2/1
f -1/2/1 -17/2/1 -9/2/1
f -1/2/1 -9/2/1 -2/2/1
v -15 1 7.5
v -15 1 6.5
v -15 1 -6.5
v -15 1 -7.5
v -15 2 6.5
v -15 2 -6.5
v -15 5 7.5
v -15 5 6.5
v -15 5 -6.5
v -15 5 -7.5
v -15 8 3.5
v -15 8 1.5
v -15 8 -1.5
v -15 8 -3.5
v -15 9 3.5
v -15 9 1.5
v -15 9 -1.5
v -15 9 -3.5
f -14/8/1 -17/8/1 -18/8/1
f -13/8/1 -15/8/1 -16/8/1
f -12/8/1 -14/8/1 -18/8/1
f -11/8/1 -14/8/1 -12/8/1
f -10/8/1 -15/8/1 -13/8/1
f -9/8/1 -15/8/1 -10/8/1
f -4/2/1 -7/2/1 -8/2/1
f -3/3/1 -6/3/1 -7/3/1
f -3/2/1 -7/2/1 -4/2/1
f -2/2/1 -5/2/1 -6/2/1
f -2/3/1 -6/3/1 -3/3/1
f -1/2/1 -5/2/1 -2/2/1
v -14 0 7.5
v -14 0 6.5
v -14 0 -6.5
v -14 0 -7.5
v -14 1 7.5
v -14 1 6.5
v -14 1 -6.5
v -14 1 -7.5
v -14 5 7.5
v -14 5 6.5
v -14 5 -6.5
v -14 5 -7.5
v -14 6 7.5
v -14 6 6.5
v -14 6 -6.5
v -14 6 -7.5
f -12/8/1 -15/8/1 -16/8/1
f -11/8/1 -15/8/1 -12/8/1
f -10/8/1 -13/8/1 -14/8/1
f -9/8/1 -13/8/1 -10/8/1
f -4/8/1 -7/8/1 -8/8/1
f -3/8/1 -7/8/1 -4/8/1
f -2/8/1 -5/8/1 -6/8/1
f -1/8/1 -5/8/1 -2/8/1
v -7 7 8.5
v -7 7 6.5
v -7 7 -6.5
v -7 7 -8.5
v -7 9 8.5
v -7 9 6.5
v -7 9 -6.5
v -7 9 -8.5
f -4/3/1 -7/3/1 -8/3/1
f -3/3/1 -7/3/1 -4/3/1
f -2/3/1 -5/3/1 -6/3/1
f -1/3/1 -5/3/1 -2/3/1
v -4 9 6.5
v -4 9 5.5
v -4 9 1.5
v -4 9 -1.5
v -4 9 -5.5
v -4 9 -6.5
v -4 14 5.5
v -4 14 -5.5
v -4 15 6.5
v -4 15 -6.5
f -4/4/1 -9/4/1 -10/4/1
f -4/8/1 -8/8/1 -9/8/1
f -4/8/1 -6/8/1 -7/8/1
f -4/8/1 -7/8/1 -8/8/1
f -3/4/1 -5/4/1 -6/4/1
f -3/8/1 -6/8/1 -4/8/1
f -2/4/1 -4/4/1 -10/4/1
f -2/4/1 -3/4/1 -4/4/1
f -1/4/1 -5/4/1 -3/4/1
f -1/4/1 -3/4/1 -2/4/1
v 9 1 7.5
v 9 1 6.5
v 9 1 -6.5
v 9 1 -7.5
v 9 2 6.5
v 9 2 -6.5
v 9 5 7.5
v 9 5 6.5
v 9 5 -6.5
v 9 5 -7.5
f -6/8/1 -9/8/1 -10/8/1
f -5/8/1 -7/8/1 -8/8/1
f -4/8/1 -6/8/1 -10/8/1
f -3/8/1 -6/8/1 -4/8/1
f -2/8/1 -7/8/1 -5/8/1
f -1/8/1 -7/8/1 -2/8/1
v 10 0 7.5
v 10 0 6.5
v 10 0 -6.5
v 10 0 -7.5
v 10 1 7.5
v 10 1 6.5
v 10 1 -6.5
v 10 1 -7.5
v 10 5 7.5
v 10 5 6.5
v 10 5 -6.5
v 10 5 -7.5
v 10 6 7.5
v 10 6 6.5
v 10 6 -6.5
v 10 6 -7.5
f -12/8/1 -15/8/1 -16/8/1
f -11/8/1 -15/8/1 -12/8/1
f -10/8/1 -13/8/1 -14/8/1
f -9/8/1 -13/8/1 -10/8/1
f -4/8/1 -7/8/1 -8/8/1
f -3/8/1 -7/8/1 -4/8/1
f -2/8/1 -5/8/1 -6/8/1
f -1/8/1 -5/8/1 -2/8/1
v -10 0 7.5
v -10 0 6.5
v -10 0 -6.5
v -10 0 -7.5
v -10 1 7.5
v -10 1 6.5
v -10 1 -6.5
v -10 1 -7.5
v -10 5 7.5
v -10 5 6.5
v -10 5 -6.5
v -10 5 -7.5
v -10 6 7.5
v -10 6 6.5
v -10 6 -6.5
v -10 6 -7.5
f -16/8/2 -15/8/2 -12/8/2
f -12/8/2 -15/8/2 -11/8/2
f -14/8/2 -13/8/2 -10/8/2
f -10/8/2 -13/8/2 -9/8/2
f -8/8/2 -7/8/2 -4/8/2
f -4/8/2 -7/8/2 -3/8/2
f -6/8/2 -5/8/2 -2/8/2
f -2/8/2 -5/8/2 -1/8/2
v -9 1 7.5
v -9 1 6.5
v -9 1 -6.5
v -9 1 -7.5
v -9 2 6.5
v -9 2 -6.5
v -9 5 7.5
v -9 5 6.5
v -9 5 -6.5
v -9 5 -7.5
f -10/8/2 -9/8/2 -6/8/2
f -8/8/2 -7/8/2 -5/8/2
f -10/8/2 -6/8/2 -4/8/2
f -4/8/2 -6/8/2 -3/8/2
f -5/8/2 -7/8/2 -2/8/2
f -2/8/2 -7/8/2 -1/8/2
v -4 7 8.5
v -4 7 6.5
v -4 7 -6.5
v -4 7 -8.5
v -4 8 6.5
v -4 8 -6.5
v -4 9 8.5
v -4 9 6.5
v -4 9 -6.5
v -4 9 -8.5
f -10/3/2 -9/3/2 -6/3/2
f -8/3/2 -7/3/2 -5/3/2
f -10/3/2 -6/3/2 -4/3/2
f -4/3/2 -6/3/2 -3/3/2
f -5/3/2 -7/3/2 -2/3/2
f -2/3/2 -7/3/2 -1/3/2
v 8 14 6.5
v 8 14 -6.5
v 8 15 6.5
v 8 15 -6.5
f -4/4/2 -3/4/2 -2/4/2
f -2/4/2 -3/4/2 -1/4/2
v 10 9 6.5
v 10 9 5.5
v 10 9 -5.5
v 10 9 -6.5
v 10 13 5.5
v 10 13 -5.5
v 10 14 6.5
v 10 14 -6.5
f -8/4/2 -7/4/2 -4/4/2
f -7/8/2 -6/8/2 -4/8/2
f -6/4/2 -5/4/2 -3/4/2
f -4/8/2 -6/8/2 -3/8/2
f -8/4/2 -4/4/2 -2/4/2
f -4/4/2 -3/4/2 -2/4/2
f -3/4/2 -5/4/2 -1/4/2
f -2/4/2 -3/4/2 -1/4/2
v 14 0 7.5
v 14 0 6.5
v 14 0 -6.5
v 14 0 -7.5
v 14 1 7.5
v 14 1 6.5
v 14 1 -6.5
v 14 1 -7.5
v 14 5 7.5
v 14 5 6.5
v 14 5 -6.5
v 14 5 -7.5
v 14 6 7.5
v 14 6 6.5
v 14 6 -6.5
v 14 6 -7.5
f -16/8/2 -15/8/2 -12/8/2
f -12/8/2 -15/8/2 -11/8/2
f -14/8/2 -13/8/2 -10/8/2
f -10/8/2 -13/8/2 -9/8/2
f -8/8/2 -7/8/2 -4/8/2
f -4/8/2 -7/8/2 -3/8/2
f -6/8/2 -5/8/2 -2/8/2
f -2/8/2 -5/8/2 -1/8/2
v 15 1 7.5
v 15 1 6.5
v 15 1 -6.5
v 15 1 -7.5
v 15 2 6.5
v 15 2 -6.5
v 15 5 7.5
v 15 5 6.5
v 15 5 -6.5
v 15 5 -7.5
v 15 8 6.5
v 15 8 4.5
v 15 8 -4.5
v 15 8 -6.5
v 15 9 6.5
v 15 9 4.5
v 15 9 -4.5
v 15 9 -6.5
f -18/8/2 -17/8/2 -14/8/2
f -16/8/2 -15/8/2 -13/8/2
f -18/8/2 -14/8/2 -12/8/2
f -12/8/2 -14/8/2 -11/8/2
f -13/8/2 -15/8/2 -10/8/2
f -10/8/2 -15/8/2 -9/8/2
f -8/2/2 -7/2/2 -4/2/2
f -4/2/2 -7/2/2 -3/2/2
f -6/2/2 -5/2/2 -2/2/2
f -2/2/2 -5/2/2 -1/2/2
v 16 2 6.5
v 16 2 5.5
v 16 2 -5.5
v 16 2 -6.5
v 16 3 6.5
v 16 3 5.5
v 16 3 -5.5
v 16 3 -6.5
f -8/2/2 -7/2/2 -4/2/2
f -4/2/2 -7/2/2 -3/2/2
f -6/2/2 -5/2/2 -2/2/2
f -2/2/2 -5/2/2 -1/2/2
v 18 2 5.5
v 18 2 -5.5
v 18 3 6.5
v 18 3 5.5
v 18 3 -5.5
v 18 3 -6.5
v 18 8 6.5
v 18 8 4.5
v 18 8 -4.5
v 18 8 -6.5
v 18 9 4.5
v 18 9 -4.5
f -12/2/2 -11/2/2 -9/2/2
f -9/2/2 -11/2/2 -8/2/2
f -10/2/2 -9/2/2 -6/2/2
f -8/2/2 -7/2/2 -6/2/2
f -9/2/2 -8/2/2 -6/2/2
f -6/2/2 -7/2/2 -5/2/2
f -5/2/2 -7/2/2 -4/2/2
f -4/2/2 -7/2/2 -3/2/2
f -5/2/2 -4/2/2 -2/2/2
f -2/2/2 -4/2/2 -1/2/2
v -7 7 8.5
v -7 9 8.5
v -4 7 8.5
v -4 9 8.5
f -2/3/3 -3/3/3 -4/3/3
f -1/3/3 -3/3/3 -2/3/3
v -15 1 7.5
v -15 5 7.5
v -14 0 7.5
v -14 1 7.5
v -14 5 7.5
v -14 6 7.5
v -13 2 7.5
v -13 4 7.5
v -11 2 7.5
v -11 4 7.5
v -10 0 7.5
v -10 1 7.5
v -10 5 7.5
v -10 6 7.5
v -9 1 7.5
v -9 5 7.5
v 9 1 7.5
v 9 5 7.5
v 10 0 7.5
v 10 1 7.5
v 10 5 7.5
v 10 6 7.5
v 11 2 7.5
v 11 4 7.5
v 13 2 7.5
v 13 4 7.5
v 14 0 7.5
v 14 1 7.5
v 14 5 7.5
v 14 6 7.5
v 15 1 7.5
v 15 5 7.5
f -29/8/3 -31/8/3 -32/8/3
f -28/8/3 -31/8/3 -29/8/3
f -26/8/3 -29/8/3 -30/8/3
f -26/8/3 -27/8/3 -28/8/3
f -26/8/3 -28/8/3 -29/8/3
f -25/8/3 -27/8/3 -26/8/3
f -24/8/3 -26/8/3 -30/8/3
f -24/6/3 -25/6/3 -26/6/3
f -23/8/3 -27/8/3 -25/8/3
f -23/6/3 -25/6/3 -24/6/3
f -22/8/3 -24/8/3 -30/8/3
f -22/8/3 -23/8/3 -24/8/3
f -21/8/3 -23/8/3 -22/8/3
f -20/8/3 -27/8/3 -23/8/3
f -20/8/3 -23/8/3 -21/8/3
f -19/8/3 -27/8/3 -20/8/3
f -18/8/3 -20/8/3 -21/8/3
f -17/8/3 -20/8/3 -18/8/3
f -13/8/3 -15/8/3 -16/8/3
f -12/8/3 -15/8/3 -13/8/3
f -10/8/3 -12/8/3 -13/8/3
f -10/8/3 -11/8/3 -12/8/3
f -10/8/3 -13/8/3 -14/8/3
f -9/8/3 -11/8/3 -10/8/3
f -8/8/3 -10/8/3 -14/8/3
f -8/6/3 -9/6/3 -10/6/3
f -7/8/3 -11/8/3 -9/8/3
f -7/6/3 -9/6/3 -8/6/3
f -6/8/3 -8/8/3 -14/8/3
f -6/8/3 -7/8/3 -8/8/3
f -5/8/3 -7/8/3 -6/8/3
f -4/8/3 -11/8/3 -7/8/3
f -4/8/3 -7/8/3 -5/8/3
f -3/8/3 -11/8/3 -4/8/3
f -2/8/3 -4/8/3 -5/8/3
f -1/8/3 -4/8/3 -2/8/3
v -17 2 6.5
v -17 9 6.5
v -15 2 6.5
v -15 5 6.5
v -14 5 6.5
v -14 6 6.5
v -10 5 6.5
v -10 6 6.5
v -9 2 6.5
v -9 5 6.5
v -7 7 6.5
v -7 9 6.5
v -4 7 6.5
v -4 8 6.5
v -4 9 6.5
v -4 15 6.5
v -3 5 6.5
v -3 7 6.5
v -3 9 6.5
v -3 14 6.5
v 4 9 6.5
v 4 14 6.5
v 5 9 6.5
v 5 14 6.5
v 7 9 6.5
v 7 10 6.5
v 7 13 6.5
v 7 14 6.5
v 8 5 6.5
v 8 7 6.5
v 8 8 6.5
v 8 9 6.5
v 8 10 6.5
v 8 13 6.5
v 8 14 6.5
v 8 15 6.5
v 9 2 6.5
v 9 5 6.5
v 10 5 6.5
v 10 6 6.5
v 10 9 6.5
v 10 14 6.5
v 14 5 6.5
v 14 6 6.5
v 15 2 6.5
v 15 5 6.5
v 15 8 6.5
v 15 9 6.5
v 16 2 6.5
v 16 3 6.5
v 18 3 6.5
v 18 8 6.5
f -50/2/3 -51/2/3 -52/2/3
f -49/2/3 -51/2/3 -50/2/3
f -48/2/3 -51/2/3 -49/2/3
f -47/2/3 -51/2/3 -48/2/3
f -45/2/3 -51/2/3 -47/2/3
f -43/2/3 -45/2/3 -46/2/3
f -42/2/3 -51/2/3 -45/2/3
f -42/2/3 -43/2/3 -44/2/3
f -42/2/3 -45/2/3 -43/2/3
f -41/2/3 -51/2/3 -42/2/3
f -40/2/3 -42/2/3 -44/2/3
f -36/2/3 -40/2/3 -44/2/3
f -36/2/3 -39/2/3 -40/2/3
f -35/2/3 -39/2/3 -36/2/3
f -34/4/3 -38/4/3 -39/4/3
f -34/4/3 -37/4/3 -38/4/3
f -33/4/3 -37/4/3 -34/4/3
f -32/4/3 -34/4/3 -39/4/3
f -32/8/3 -33/8/3 -34/8/3
f -31/4/3 -37/4/3 -33/4/3
f -31/8/3 -33/8/3 -32/8/3
f -30/4/3 -32/4/3 -39/4/3
f -30/4/3 -31/4/3 -32/4/3
f -29/4/3 -37/4/3 -31/4/3
f -29/4/3 -31/4/3 -30/4/3
f -28/4/3 -30/4/3 -39/4/3
f -28/8/3 -29/8/3 -30/8/3
f -27/8/3 -29/8/3 -28/8/3
f -26/8/3 -29/8/3 -27/8/3
f -25/4/3 -37/4/3 -29/4/3
f -25/8/3 -29/8/3 -26/8/3
f -24/3/3 -35/3/3 -36/3/3
f -24/2/3 -36/2/3 -44/2/3
f -23/2/3 -39/2/3 -35/2/3
f -23/3/3 -35/3/3 -24/3/3
f -22/4/3 -28/4/3 -39/4/3
f -22/2/3 -39/2/3 -23/2/3
f -22/4/3 -27/4/3 -28/4/3
f -21/4/3 -27/4/3 -22/4/3
f -20/8/3 -26/8/3 -27/8/3
f -20/4/3 -27/4/3 -21/4/3
f -19/4/3 -25/4/3 -26/4/3
f -19/8/3 -26/8/3 -20/8/3
f -18/4/3 -37/4/3 -25/4/3
f -18/4/3 -25/4/3 -19/4/3
f -17/4/3 -37/4/3 -18/4/3
f -16/2/3 -24/2/3 -44/2/3
f -16/2/3 -21/2/3 -22/2/3
f -16/2/3 -23/2/3 -24/2/3
f -16/2/3 -22/2/3 -23/2/3
f -15/2/3 -21/2/3 -16/2/3
f -14/2/3 -21/2/3 -15/2/3
f -13/2/3 -21/2/3 -14/2/3
f -12/4/3 -19/4/3 -20/4/3
f -12/2/3 -21/2/3 -13/2/3
f -12/4/3 -20/4/3 -21/4/3
f -12/4/3 -18/4/3 -19/4/3
f -11/4/3 -18/4/3 -12/4/3
f -9/2/3 -12/2/3 -13/2/3
f -7/2/3 -9/2/3 -10/2/3
f -6/2/3 -12/2/3 -9/2/3
f -6/2/3 -9/2/3 -7/2/3
f -5/2/3 -12/2/3 -6/2/3
f -4/2/3 -7/2/3 -8/2/3
f -4/2/3 -6/2/3 -7/2/3
f -3/2/3 -6/2/3 -4/2/3
f -2/2/3 -6/2/3 -3/2/3
f -1/2/3 -6/2/3 -2/2/3
v -18 5 5.5
v -18 7 5.5
v -17 5 5.5
v -17 7 5.5
v 16 2 5.5
v 16 3 5.5
v 17 2 5.5
v 17 3 5.5
v 18 2 5.5
v 18 3 5.5
f -8/5/3 -9/5/3 -10/5/3
f -7/5/3 -9/5/3 -8/5/3
f -4/3/3 -5/3/3 -6/3/3
f -3/3/3 -5/3/3 -4/3/3
f -2/2/3 -3/2/3 -4/2/3
f -1/2/3 -3/2/3 -2/2/3
v 15 8 4.5
v 15 9 4.5
v 18 8 4.5
v 18 9 4.5
f -2/2/3 -3/2/3 -4/2/3
f -1/2/3 -3/2/3 -2/2/3
v -18 5 -2.5
v -18 7 -2.5
v -17 5 -2.5
v -17 7 -2.5
f -2/5/3 -3/5/3 -4/5/3
f -1/5/3 -3/5/3 -2/5/3
v -17 8 -3.5
v -17 9 -3.5
v -15 8 -3.5
v -15 9 -3.5
f -2/2/3 -3/2/3 -4/2/3
f -1/2/3 -3/2/3 -2/2/3
v -15 1 -6.5
v -15 2 -6.5
v -14 0 -6.5
v -14 1 -6.5
v -10 0 -6.5
v -10 1 -6.5
v -9 1 -6.5
v -9 2 -6.5
v 9 1 -6.5
v 9 2 -6.5
v 10 0 -6.5
v 10 1 -6.5
v 14 0 -6.5
v 14 1 -6.5
v 15 1 -6.5
v 15 2 -6.5
f -13/8/3 -15/8/3 -16/8/3
f -12/8/3 -13/8/3 -14/8/3
f -11/8/3 -15/8/3 -13/8/3
f -11/8/3 -13/8/3 -12/8/3
f -10/8/3 -15/8/3 -11/8/3
f -9/8/3 -15/8/3 -10/8/3
f -5/8/3 -7/8/3 -8/8/3
f -4/8/3 -5/8/3 -6/8/3
f -3/8/3 -7/8/3 -5/8/3
f -3/8/3 -5/8/3 -4/8/3
f -2/8/3 -7/8/3 -3/8/3
f -1/8/3 -7/8/3 -2/8/3
v -15 1 6.5
v -15 2 6.5
v -14 0 6.5
v -14 1 6.5
v -10 0 6.5
v -10 1 6.5
v -9 1 6.5
v -9 2 6.5
v 9 1 6.5
v 9 2 6.5
v 10 0 6.5
v 10 1 6.5
v 14 0 6.5
v 14 1 6.5
v 15 1 6.5
v 15 2 6.5
f -16/8/4 -15/8/4 -13/8/4
f -14/8/4 -13/8/4 -12/8/4
f -13/8/4 -15/8/4 -11/8/4
f -12/8/4 -13/8/4 -11/8/4
f -11/8/4 -15/8/4 -10/8/4
f -10/8/4 -15/8/4 -9/8/4
f -8/8/4 -7/8/4 -5/8/4
f -6/8/4 -5/8/4 -4/8/4
f -5/8/4 -7/8/4 -3/8/4
f -4/8/4 -5/8/4 -3/8/4
f -3/8/4 -7/8/4 -2/8/4
f -2/8/4 -7/8/4 -1/8/4
v -17 8 3.5
v -17 9 3.5
v -15 8 3.5
v -15 9 3.5
f -4/2/4 -3/2/4 -2/2/4
f -2/2/4 -3/2/4 -1/2/4
v -18 5 2.5
v -18 7 2.5
v -17 5 2.5
v -17 7 2.5
f -4/5/4 -3/5/4 -2/5/4
f -2/5/4 -3/5/4 -1/5/4
v 15 8 -4.5
v 15 9 -4.5
v 18 8 -4.5
v 18 9 -4.5
f -4/2/4 -3/2/4 -2/2/4
f -2/2/4 -3/2/4 -1/2/4
v -18 5 -5.5
v -18 7 -5.5
v -17 5 -5.5
v -17 7 -5.5
v 16 2 -5.5
v 16 3 -5.5
v 18 2 -5.5
v 18 3 -5.5
f -8/5/4 -7/5/4 -6/5/4
f -6/5/4 -7/5/4 -5/5/4
f -4/2/4 -3/2/4 -2/2/4
f -2/2/4 -3/2/4 -1/2/4
v -17 2 -6.5
v -17 9 -6.5
v -15 2 -6.5
v -15 5 -6.5
v -14 5 -6.5
v -14 6 -6.5
v -10 5 -6.5
v -10 6 -6.5
v -9 2 -6.5
v -9 5 -6.5
v -7 7 -6.5
v -7 9 -6.5
v -4 7 -6.5
v -4 8 -6.5
v -4 9 -6.5
v -4 15 -6.5
v -3 9 -6.5
v -3 14 -6.5
v -1 5 -6.5
v -1 7 -6.5
v 3 9 -6.5
v 3 14 -6.5
v 5 9 -6.5
v 5 14 -6.5
v 7 9 -6.5
v 7 10 -6.5
v 7 13 -6.5
v 7 14 -6.5
v 8 5 -6.5
v 8 7 -6.5
v 8 8 -6.5
v 8 9 -6.5
v 8 10 -6.5
v 8 13 -6.5
v 8 14 -6.5
v 8 15 -6.5
v 9 2 -6.5
v 9 5 -6.5
v 10 5 -6.5
v 10 6 -6.5
v 10 9 -6.5
v 10 14 -6.5
v 14 5 -6.5
v 14 6 -6.5
v 15 2 -6.5
v 15 5 -6.5
v 15 8 -6.5
v 15 9 -6.5
v 16 2 -6.5
v 16 3 -6.5
v 18 3 -6.5
v 18 8 -6.5
f -52/2/4 -51/2/4 -50/2/4
f -50/2/4 -51/2/4 -49/2/4
f -49/2/4 -51/2/4 -48/2/4
f -48/2/4 -51/2/4 -47/2/4
f -47/2/4 -51/2/4 -45/2/4
f -46/2/4 -45/2/4 -43/2/4
f -45/2/4 -51/2/4 -42/2/4
f -44/2/4 -43/2/4 -42/2/4
f -43/2/4 -45/2/4 -42/2/4
f -42/2/4 -51/2/4 -41/2/4
f -44/2/4 -42/2/4 -40/2/4
f -39/4/4 -38/4/4 -36/4/4
f -38/4/4 -37/4/4 -36/4/4
f -36/4/4 -37/4/4 -35/4/4
f -40/2/4 -39/2/4 -34/2/4
f -44/2/4 -40/2/4 -34/2/4
f -34/2/4 -39/2/4 -33/2/4
f -36/8/4 -35/8/4 -32/8/4
f -39/4/4 -36/4/4 -32/4/4
f -35/4/4 -37/4/4 -31/4/4
f -32/8/4 -35/8/4 -31/8/4
f -39/4/4 -32/4/4 -30/4/4
f -32/4/4 -31/4/4 -30/4/4
f -31/4/4 -37/4/4 -29/4/4
f -30/4/4 -31/4/4 -29/4/4
f -39/4/4 -30/4/4 -28/4/4
f -30/8/4 -29/8/4 -28/8/4
f -28/8/4 -29/8/4 -27/8/4
f -27/8/4 -29/8/4 -26/8/4
f -29/4/4 -37/4/4 -25/4/4
f -26/8/4 -29/8/4 -25/8/4
f -34/3/4 -33/3/4 -24/3/4
f -44/2/4 -34/2/4 -24/2/4
f -33/2/4 -39/2/4 -23/2/4
f -24/3/4 -33/3/4 -23/3/4
f -39/4/4 -28/4/4 -22/4/4
f -23/2/4 -39/2/4 -22/2/4
f -28/4/4 -27/4/4 -22/4/4
f -22/4/4 -27/4/4 -21/4/4
f -27/8/4 -26/8/4 -20/8/4
f -21/4/4 -27/4/4 -20/4/4
f -26/4/4 -25/4/4 -19/4/4
f -20/8/4 -26/8/4 -19/8/4
f -25/4/4 -37/4/4 -18/4/4
f -19/4/4 -25/4/4 -18/4/4
f -18/4/4 -37/4/4 -17/4/4
f -22/2/4 -21/2/4 -16/2/4
f -44/2/4 -24/2/4 -16/2/4
f -24/2/4 -23/2/4 -16/2/4
f -23/2/4 -22/2/4 -16/2/4
f -16/2/4 -21/2/4 -15/2/4
f -15/2/4 -21/2/4 -14/2/4
f -14/2/4 -21/2/4 -13/2/4
f -19/4/4 -18/4/4 -12/4/4
f -13/2/4 -21/2/4 -12/2/4
f -20/4/4 -19/4/4 -12/4/4
f -21/4/4 -20/4/4 -12/4/4
f -12/4/4 -18/4/4 -11/4/4
f -13/2/4 -12/2/4 -9/2/4
f -10/2/4 -9/2/4 -7/2/4
f -9/2/4 -12/2/4 -6/2/4
f -7/2/4 -9/2/4 -6/2/4
f -6/2/4 -12/2/4 -5/2/4
f -8/2/4 -7/2/4 -4/2/4
f -7/2/4 -6/2/4 -4/2/4
f -4/2/4 -6/2/4 -3/2/4
f -3/2/4 -6/2/4 -2/2/4
f -2/2/4 -6/2/4 -1/2/4
v -15 1 -7.5
v -15 5 -7.5
v -14 0 -7.5
v -14 1 -7.5
v -14 5 -7.5
v -14 6 -7.5
v -13 2 -7.5
v -13 4 -7.5
v -11 2 -7.5
v -11 4 -7.5
v -10 0 -7.5
v -10 1 -7.5
v -10 5 -7.5
v -10 6 -7.5
v -9 1 -7.5
v -9 5 -7.5
v 9 1 -7.5
v 9 5 -7.5
v 10 0 -7.5
v 10 1 -7.5
v 10 5 -7.5
v 10 6 -7.5
v 11 2 -7.5
v 11 4 -7.5
v 13 2 -7.5
v 13 4 -7.5
v 14 0 -7.5
v 14 1 -7.5
v 14 5 -7.5
v 14 6 -7.5
v 15 1 -7.5
v 15 5 -7.5
f -32/8/4 -31/8/4 -29/8/4
f -29/8/4 -31/8/4 -28/8/4
f -30/8/4 -29/8/4 -26/8/4
f -28/8/4 -27/8/4 -26/8/4
f -29/8/4 -28/8/4 -26/8/4
f -26/8/4 -27/8/4 -25/8/4
f -30/8/4 -26/8/4 -24/8/4
f -26/6/4 -25/6/4 -24/6/4
f -25/8/4 -27/8/4 -23/8/4
f -24/6/4 -25/6/4 -23/6/4
f -30/8/4 -24/8/4 -22/8/4
f -24/8/4 -23/8/4 -22/8/4
f -22/8/4 -23/8/4 -21/8/4
f -23/8/4 -27/8/4 -20/8/4
f -21/8/4 -23/8/4 -20/8/4
f -20/8/4 -27/8/4 -19/8/4
f -21/8/4 -20/8/4 -18/8/4
f -18/8/4 -20/8/4 -17/8/4
f -16/8/4 -15/8/4 -13/8/4
f -13/8/4 -15/8/4 -12/8/4
f -13/8/4 -12/8/4 -10/8/4
f -12/8/4 -11/8/4 -10/8/4
f -14/8/4 -13/8/4 -10/8/4
f -10/8/4 -11/8/4 -9/8/4
f -14/8/4 -10/8/4 -8/8/4
f -10/6/4 -9/6/4 -8/6/4
f -9/8/4 -11/8/4 -7/8/4
f -8/6/4 -9/6/4 -7/6/4
f -14/8/4 -8/8/4 -6/8/4
f -8/8/4 -7/8/4 -6/8/4
f -6/8/4 -7/8/4 -5/8/4
f -7/8/4 -11/8/4 -4/8/4
f -5/8/4 -7/8/4 -4/8/4
f -4/8/4 -11/8/4 -3/8/4
f -5/8/4 -4/8/4 -2/8/4
f -2/8/4 -4/8/4 -1/8/4
v -7 7 -8.5
v -7 9 -8.5
v -4 7 -8.5
v -4 9 -8.5
f -4/3/4 -3/3/4 -2/3/4
f -2/3/4 -3/3/4 -1/3/4
v -14 0 7.5
v -10 0 7.5
v 10 0 7.5
v 14 0 7.5
v -14 0 6.5
v -10 0 6.5
v 10 0 6.5
v 14 0 6.5
v -14 0 -6.5
v -10 0 -6.5
v 10 0 -6.5
v 14 0 -6.5
v -14 0 -7.5
v -10 0 -7.5
v 10 0 -7.5
v 14 0 -7.5
f -12/8/5 -15/8/5 -16/8/5
f -11/8/5 -15/8/5 -12/8/5
f -10/8/5 -13/8/5 -14/8/5
f -9/8/5 -13/8/5 -10/8/5
f -4/8/5 -7/8/5 -8/8/5
f -3/8/5 -7/8/5 -4/8/5
f -2/8/5 -5/8/5 -6/8/5
f -1/8/5 -5/8/5 -2/8/5
v -15 1 7.5
v -14 1 7.5
v -10 1 7.5
v -9 1 7.5
v 9 1 7.5
v 10 1 7.5
v 14 1 7.5
v 15 1 7.5
v -15 1 6.5
v -14 1 6.5
v -10 1 6.5
v -9 1 6.5
v 9 1 6.5
v 10 1 6.5
v 14 1 6.5
v 15 1 6.5
v -15 1 -6.5
v -14 1 -6.5
v -10 1 -6.5
v -9 1 -6.5
v 9 1 -6.5
v 10 1 -6.5
v 14 1 -6.5
v 15 1 -6.5
v -15 1 -7.5
v -14 1 -7.5
v -10 1 -7.5
v -9 1 -7.5
v 9 1 -7.5
v 10 1 -7.5
v 14 1 -7.5
v 15 1 -7.5
f -24/8/5 -31/8/5 -32/8/5
f -23/8/5 -31/8/5 -24/8/5
f -22/8/5 -29/8/5 -30/8/5
f -21/8/5 -29/8/5 -22/8/5
f -20/8/5 -27/8/5 -28/8/5
f -19/8/5 -27/8/5 -20/8/5
f -18/8/5 -25/8/5 -26/8/5
f -17/8/5 -25/8/5 -18/8/5
f -8/8/5 -15/8/5 -16/8/5
f -7/8/5 -15/8/5 -8/8/5
f -6/8/5 -13/8/5 -14/8/5
f -5/8/5 -13/8/5 -6/8/5
f -4/8/5 -11/8/5 -12/8/5
f -3/8/5 -11/8/5 -4/8/5
f -2/8/5 -9/8/5 -10/8/5
f -1/8/5 -9/8/5 -2/8/5
v -17 2 6.5
v -15 2 6.5
v -9 2 6.5
v 9 2 6.5
v 15 2 6.5
v 16 2 6.5
v -16 2 5.5
v -15 2 5.5
v -9 2 5.5
v 9 2 5.5
v 15 2 5.5
v 16 2 5.5
v 17 2 5.5
v 18 2 5.5
v -17 2 1.5
v -16 2 1.5
v -17 2 -1.5
v -16 2 -1.5
v 16 2 -4.5
v 17 2 -4.5
v -16 2 -5.5
v -15 2 -5.5
v -9 2 -5.5
v 9 2 -5.5
v 15 2 -5.5
v 16 2 -5.5
v 18 2 -5.5
v -17 2 -6.5
v -15 2 -6.5
v -9 2 -6.5
v 9 2 -6.5
v 15 2 -6.5
v 16 2 -6.5
f -27/2/5 -32/2/5 -33/2/5
f -26/3/5 -31/3/5 -32/3/5
f -26/2/5 -32/2/5 -27/2/5
f -25/2/5 -30/2/5 -31/2/5
f -25/3/5 -31/3/5 -26/3/5
f -24/3/5 -29/3/5 -30/3/5
f -24/2/5 -30/2/5 -25/2/5
f -23/2/5 -28/2/5 -29/2/5
f -23/3/5 -29/3/5 -24/3/5
f -22/2/5 -28/2/5 -23/2/5
f -19/2/5 -27/2/5 -33/2/5
f -18/3/5 -24/3/5 -25/3/5
f -18/2/5 -27/2/5 -19/2/5
f -18/3/5 -26/3/5 -27/3/5
f -18/3/5 -21/3/5 -22/3/5
f -18/3/5 -22/3/5 -23/3/5
f -18/3/5 -23/3/5 -24/3/5
f -18/3/5 -25/3/5 -26/3/5
f -17/3/5 -18/3/5 -19/3/5
f -16/3/5 -21/3/5 -18/3/5
f -16/3/5 -18/3/5 -17/3/5
f -15/3/5 -21/3/5 -16/3/5
f -14/2/5 -20/2/5 -21/2/5
f -14/3/5 -21/3/5 -15/3/5
f -13/3/5 -15/3/5 -16/3/5
f -13/2/5 -16/2/5 -17/2/5
f -12/3/5 -15/3/5 -13/3/5
f -11/3/5 -15/3/5 -12/3/5
f -10/3/5 -15/3/5 -11/3/5
f -9/3/5 -15/3/5 -10/3/5
f -8/2/5 -14/2/5 -15/2/5
f -8/3/5 -15/3/5 -9/3/5
f -7/2/5 -20/2/5 -14/2/5
f -7/2/5 -14/2/5 -8/2/5
f -6/2/5 -13/2/5 -17/2/5
f -6/2/5 -12/2/5 -13/2/5
f -5/3/5 -11/3/5 -12/3/5
f -5/2/5 -12/2/5 -6/2/5
f -4/2/5 -10/2/5 -11/2/5
f -4/3/5 -11/3/5 -5/3/5
f -3/3/5 -9/3/5 -10/3/5
f -3/2/5 -10/2/5 -4/2/5
f -2/2/5 -8/2/5 -9/2/5
f -2/3/5 -9/3/5 -3/3/5
f -1/2/5 -8/2/5 -2/2/5
v 16 3 6.5
v 18 3 6.5
v 16 3 5.5
v 17 3 5.5
v 18 3 5.5
v 16 3 -5.5
v 18 3 -5.5
v 16 3 -6.5
v 18 3 -6.5
f -7/2/5 -8/2/5 -9/2/5
f -6/2/5 -8/2/5 -7/2/5
f -5/2/5 -8/2/5 -6/2/5
f -2/2/5 -3/2/5 -4/2/5
f -1/2/5 -3/2/5 -2/2/5
v -18 5 5.5
v -17 5 5.5
v -18 5 2.5
v -17 5 2.5
v -18 5 -2.5
v -17 5 -2.5
v -18 5 -5.5
v -17 5 -5.5
f -6/5/5 -7/5/5 -8/5/5
f -5/5/5 -7/5/5 -6/5/5
f -2/5/5 -3/5/5 -4/5/5
f -1/5/5 -3/5/5 -2/5/5
v -7 7 8.5
v -4 7 8.5
v -7 7 6.5
v -4 7 6.5
v -7 7 -6.5
v -4 7 -6.5
v -7 7 -8.5
v -4 7 -8.5
f -6/3/5 -7/3/5 -8/3/5
f -5/3/5 -7/3/5 -6/3/5
f -2/3/5 -3/3/5 -4/3/5
f -1/3/5 -3/3/5 -2/3/5
v -15 5 7.5
v -14 5 7.5
v -10 5 7.5
v -9 5 7.5
v 9 5 7.5
v 10 5 7.5
v 14 5 7.5
v 15 5 7.5
v -15 5 6.5
v -14 5 6.5
v -10 5 6.5
v -9 5 6.5
v 9 5 6.5
v 10 5 6.5
v 14 5 6.5
v 15 5 6.5
v -15 5 -6.5
v -14 5 -6.5
v -10 5 -6.5
v -9 5 -6.5
v 9 5 -6.5
v 10 5 -6.5
v 14 5 -6.5
v 15 5 -6.5
v -15 5 -7.5
v -14 5 -7.5
v -10 5 -7.5
v -9 5 -7.5
v 9 5 -7.5
v 10 5 -7.5
v 14 5 -7.5
v 15 5 -7.5
f -32/8/6 -31/8/6 -24/8/6
f -24/8/6 -31/8/6 -23/8/6
f -30/8/6 -29/8/6 -22/8/6
f -22/8/6 -29/8/6 -21/8/6
f -28/8/6 -27/8/6 -20/8/6
f -20/8/6 -27/8/6 -19/8/6
f -26/8/6 -25/8/6 -18/8/6
f -18/8/6 -25/8/6 -17/8/6
f -16/8/6 -15/8/6 -8/8/6
f -8/8/6 -15/8/6 -7/8/6
f -14/8/6 -13/8/6 -6/8/6
f -6/8/6 -13/8/6 -5/8/6
f -12/8/6 -11/8/6 -4/8/6
f -4/8/6 -11/8/6 -3/8/6
f -10/8/6 -9/8/6 -2/8/6
f -2/8/6 -9/8/6 -1/8/6
v -14 6 7.5
v -10 6 7.5
v 10 6 7.5
v 14 6 7.5
v -14 6 6.5
v -10 6 6.5
v 10 6 6.5
v 14 6 6.5
v -14 6 -6.5
v -10 6 -6.5
v 10 6 -6.5
v 14 6 -6.5
v -14 6 -7.5
v -10 6 -7.5
v 10 6 -7.5
v 14 6 -7.5
f -16/8/6 -15/8/6 -12/8/6
f -12/8/6 -15/8/6 -11/8/6
f -14/8/6 -13/8/6 -10/8/6
f -10/8/6 -13/8/6 -9/8/6
f -8/8/6 -7/8/6 -4/8/6
f -4/8/6 -7/8/6 -3/8/6
f -6/8/6 -5/8/6 -2/8/6
f -2/8/6 -5/8/6 -1/8/6
v -18 7 5.5
v -17 7 5.5
v -18 7 2.5
v -17 7 2.5
v -18 7 -2.5
v -17 7 -2.5
v -18 7 -5.5
v -17 7 -5.5
f -8/5/6 -7/5/6 -6/5/6
f -6/5/6 -7/5/6 -5/5/6
f -4/5/6 -3/5/6 -2/5/6
f -2/5/6 -3/5/6 -1/5/6
v 15 8 6.5
v 18 8 6.5
v 15 8 4.5
v 18 8 4.5
v -17 8 3.5
v -15 8 3.5
v -17 8 1.5
v -15 8 1.5
v -17 8 -1.5
v -15 8 -1.5
v -17 8 -3.5
v -15 8 -3.5
v 15 8 -4.5
v 18 8 -4.5
v 15 8 -6.5
v 18 8 -6.5
f -16/2/6 -15/2/6 -14/2/6
f -14/2/6 -15/2/6 -13/2/6
f -12/2/6 -11/2/6 -10/2/6
f -10/2/6 -11/2/6 -9/2/6
f -10/3/6 -9/3/6 -8/3/6
f -8/3/6 -9/3/6 -7/3/6
f -8/2/6 -7/2/6 -6/2/6
f -6/2/6 -7/2/6 -5/2/6
f -4/2/6 -3/2/6 -2/2/6
f -2/2/6 -3/2/6 -1/2/6
v -7 9 8.5
v -4 9 8.5
v -17 9 6.5
v -7 9 6.5
v -4 9 6.5
v 10 9 6.5
v 15 9 6.5
v -4 9 5.5
v 10 9 5.5
v 15 9 4.5
v 18 9 4.5
v -17 9 3.5
v -15 9 3.5
v -15 9 1.5
v -4 9 1.5
v -15 9 -1.5
v -4 9 -1.5
v -17 9 -3.5
v -15 9 -3.5
v 15 9 -4.5
v 18 9 -4.5
v -4 9 -5.5
v 10 9 -5.5
v -17 9 -6.5
v -7 9 -6.5
v -4 9 -6.5
v 10 9 -6.5
v 15 9 -6.5
v -7 9 -8.5
v -4 9 -8.5
f -30/3/6 -29/3/6 -27/3/6
f -27/3/6 -29/3/6 -26/3/6
f -28/2/6 -27/2/6 -23/2/6
f -27/2/6 -26/2/6 -23/2/6
f -25/2/6 -24/2/6 -22/2/6
f -22/2/6 -24/2/6 -21/2/6
f -28/2/6 -23/2/6 -19/2/6
f -19/2/6 -23/2/6 -18/2/6
f -18/2/6 -23/2/6 -17/2/6
f -17/2/6 -23/2/6 -16/2/6
f -17/3/6 -16/3/6 -15/3/6
f -15/3/6 -16/3/6 -14/3/6
f -15/2/6 -14/2/6 -12/2/6
f -21/2/6 -20/2/6 -11/2/6
f -22/2/6 -21/2/6 -11/2/6
f -11/2/6 -20/2/6 -10/2/6
f -13/2/6 -12/2/6 -9/2/6
f -12/2/6 -14/2/6 -9/2/6
f -22/2/6 -11/2/6 -8/2/6
f -13/2/6 -9/2/6 -7/2/6
f -7/2/6 -9/2/6 -6/2/6
f -6/2/6 -9/2/6 -5/2/6
f -8/2/6 -11/2/6 -4/2/6
f -4/2/6 -11/2/6 -3/2/6
f -6/3/6 -5/3/6 -2/3/6
f -2/3/6 -5/3/6 -1/3/6
v 8 14 6.5
v 10 14 6.5
v 8 14 -6.5
v 10 14 -6.5
f -4/4/6 -3/4/6 -2/4/6
f -2/4/6 -3/4/6 -1/4/6
v -4 15 6.5
v 8 15 6.5
v -4 15 -6.5
v 8 15 -6.5
f -4/4/6 -3/4/6 -2/4/6
f -2/4/6 -3/4/6 -1/4/6
